<svg xmlns="http://www.w3.org/2000/svg" id="Layer_1" data-name="Layer 1" viewBox="0 0 400 300"><rect width="176.24" height="114.51" x="114.29" y="52.1" fill="#24285b" transform="translate(-0.28 0.52) rotate(-0.15)"/><polygon fill="#c9c9c9" points="189.2 153.57 182.62 196.11 227.26 196 216.89 153.5 189.2 153.57"/><ellipse cx="205.01" cy="225.17" fill="#e6e6e6" opacity=".24" rx="139.5" ry="30.63" transform="translate(-0.57 0.52) rotate(-0.15)"/><rect width="62.79" height="13.67" x="172.43" y="188.6" fill="#e6e6e6" transform="translate(-0.5 0.52) rotate(-0.15)"/><circle cx="128.5" cy="63.71" r="3.08" fill="#fff"/><circle cx="137.68" cy="63.69" r="3.08" fill="#68e1fd"/><circle cx="146.32" cy="63.67" r="3.08" fill="#ffd200"/><rect width="176.24" height="22.1" x="114.41" y="144.51" fill="#e6e6e6" transform="translate(-0.4 0.52) rotate(-0.15)"/><circle cx="204.43" cy="155.56" r="6.02" fill="#a5a5a5"/><rect width="55.55" height="46.04" x="252.33" y="27.98" fill="#ffd200" transform="translate(-0.13 0.71) rotate(-0.15)"/><polygon fill="#e6e6e6" points="262.85 213.55 207.27 213.69 201.43 213.7 145.85 213.84 132.37 249.69 201.52 249.51 207.36 249.5 276.52 249.32 262.85 213.55"/><polygon fill="#c9c9c9" points="229.29 219.6 199.92 219.67 195.48 219.69 150.64 219.8 143.05 243.69 195.54 243.56 199.98 243.55 237.96 243.45 229.29 219.6"/><polygon fill="#c9c9c9" points="235.28 219.58 244.66 243.43 267.61 243.37 257.76 219.53 235.28 219.58" opacity=".42"/><polygon fill="#c9c9c9" points="132.37 249.69 137.34 256.33 270.7 255.99 276.52 249.32 132.37 249.69"/><rect width="9.79" height="7.73" x="261.63" y="56.24" fill="#fff" transform="translate(-0.15 0.68) rotate(-0.15)"/><rect width="9.79" height="12.33" x="275.71" y="51.61" fill="#fff" transform="translate(-0.15 0.72) rotate(-0.15)"/><rect width="9.79" height="19.67" x="289.32" y="44.24" fill="#fff" transform="translate(-0.14 0.75) rotate(-0.15)"/><polyline fill="none" stroke="#24285b" stroke-linecap="round" stroke-linejoin="round" stroke-width="2" points="265.82 52.8 272 44.29 281.34 46.56 291.28 36.59"/><polyline fill="none" stroke="#24285b" stroke-linecap="round" stroke-linejoin="round" stroke-width="2" points="289.02 36.6 291.77 35.98 291.5 38.79"/><rect width="78.96" height="6.17" x="159.75" y="60.45" fill="#fff" transform="translate(-0.16 0.51) rotate(-0.15)"/><rect width="11.78" height="6.17" x="226.92" y="60.36" fill="#68e1fd" transform="translate(-0.16 0.59) rotate(-0.15)"/><rect width="43.59" height="36.73" x="128.6" y="83.78" fill="#68e1fd" transform="translate(-0.26 0.38) rotate(-0.15)"/><polygon fill="#fff" points="128.65 120.56 140.64 97.36 150.74 114.78 159.85 103.65 172.24 120.45 128.65 120.56" opacity=".52"/><circle cx="151.74" cy="95.95" r="4.37" fill="#fff"/><rect width="18.99" height="4.28" x="140.92" y="125.1" fill="#fff" opacity=".23" transform="translate(-0.32 0.38) rotate(-0.15)"/><rect width="97.21" height="51.34" x="180.98" y="83.58" fill="#fff" opacity=".06" transform="translate(-0.28 0.59) rotate(-0.15)"/><rect width="46.56" height="4.48" x="186.33" y="88.49" fill="#68e1fd" transform="translate(-0.23 0.53) rotate(-0.15)"/><rect width="46.56" height="4.48" x="186.42" y="125.52" fill="#68e1fd" transform="translate(-0.33 0.54) rotate(-0.15)"/><rect width="84.13" height="4.48" x="186.35" y="98.41" fill="#fff" transform="translate(-0.26 0.58) rotate(-0.15)"/><rect width="84.13" height="4.48" x="186.37" y="106.75" fill="#fff" opacity=".65" transform="translate(-0.28 0.58) rotate(-0.15)"/><rect width="84.13" height="4.48" x="186.39" y="115.03" fill="#fff" opacity=".23" transform="translate(-0.3 0.58) rotate(-0.15)"/><rect width="62.27" height="56.22" x="83.08" y="125.22" fill="#e6e6e6" transform="translate(-0.39 0.29) rotate(-0.15)"/><rect width="62.27" height="42.9" x="83.09" y="138.53" fill="#f2f2f2" transform="translate(-0.41 0.29) rotate(-0.15)"/><circle cx="90.05" cy="131.99" r="2.45" fill="#24285b"/><circle cx="97.35" cy="131.97" r="2.45" fill="#68e1fd"/><circle cx="104.23" cy="131.95" r="2.45" fill="#ffd200"/><path fill="#68e1fd" d="M116,146.52a5.67,5.67,0,0,0-7.75,2.1l-9.69,16.89a5.68,5.68,0,1,0,9.85,5.65l9.69-16.89a5.68,5.68,0,0,0-2.1-7.75Z"/><path fill="#fff" d="M116,146.52a5.67,5.67,0,0,0-7.75,2.1l-9.69,16.89a5.68,5.68,0,1,0,9.85,5.65l9.69-16.89a5.68,5.68,0,0,0-2.1-7.75Z" opacity=".46"/><path fill="#a0ed83" d="M109,166.85a5.67,5.67,0,1,0-8.3,6.41,5.67,5.67,0,0,0,8.3-6.41Z"/><path fill="#68e1fd" d="M128,165.43l-9.78-16.84a5.68,5.68,0,1,0-9.82,5.7l9.78,16.85a5.68,5.68,0,1,0,9.82-5.71Z"/><path fill="#68e1fd" d="M109,166.85a5.67,5.67,0,1,0-8.3,6.41,5.67,5.67,0,0,0,8.3-6.41Z"/><path d="M109,166.85a5.67,5.67,0,1,0-8.3,6.41,5.67,5.67,0,0,0,8.3-6.41Z" opacity=".06"/><rect width="9.35" height="41.62" x="145.33" y="125.13" opacity=".06" transform="translate(-0.37 0.38) rotate(-0.15)"/><rect width="28.77" height="9.43" x="261.68" y="74.03" opacity=".06" transform="translate(-0.2 0.7) rotate(-0.15)"/><path fill="#ffd200" d="M281.6,196.21l0,5.84c0,2.65,7.41,4.77,16.51,4.73s16.48-2.22,16.47-4.87l0-5.84Z"/><path fill="#ffd200" d="M281.63,203.25l0,5.85c0,2.65,7.41,4.76,16.51,4.72s16.48-2.21,16.47-4.86l0-5.85Z"/><path d="M281.63,203.25l0,5.85c0,2.65,7.41,4.76,16.51,4.72s16.48-2.21,16.47-4.86l0-5.85Z" opacity=".08"/><ellipse cx="298.28" cy="202.99" fill="#ffd200" rx="16.34" ry="4.75" transform="translate(-0.86 1.26) rotate(-0.24)"/><path d="M281.6,196.21l0,5.84c0,2.65,7.41,4.77,16.51,4.73s16.48-2.22,16.47-4.87l0-5.84Z" opacity=".08"/><path fill="#ffd200" d="M282.77,189.22l0,5.84c0,2.65,7.41,4.77,16.51,4.73s16.48-2.22,16.47-4.87l0-5.84Z"/><path fill="#ffd200" d="M281.54,182.18l0,5.84c0,2.65,7.41,4.77,16.51,4.73s16.48-2.22,16.47-4.87l0-5.84Z"/><ellipse cx="298.25" cy="196.01" fill="#ffd200" rx="16.34" ry="4.75" transform="translate(-0.83 1.26) rotate(-0.24)"/><path d="M282.77,189.22l0,5.84c0,2.65,7.41,4.77,16.51,4.73s16.48-2.22,16.47-4.87l0-5.84Z" opacity=".08"/><ellipse cx="299.41" cy="189.08" fill="#ffd200" rx="16.34" ry="4.75" transform="translate(-0.8 1.27) rotate(-0.24)"/><path d="M281.54,182.18l0,5.84c0,2.65,7.41,4.77,16.51,4.73s16.48-2.22,16.47-4.87l0-5.84Z" opacity=".08"/><circle cx="282.24" cy="202.72" r="12.24" opacity=".08"/><path d="M290.36,190.44s12.82,3.88,10.81,23.29c0,0-8.35.3-12.32-.7C285.3,212.12,290.36,190.44,290.36,190.44Z" opacity=".08"/><ellipse cx="298.03" cy="182.11" fill="#ffd200" rx="16.49" ry="4.75" transform="translate(-0.77 1.26) rotate(-0.24)"/><circle cx="282.24" cy="202.72" r="12.24" fill="#ffd200"/><circle cx="282.24" cy="202.72" r="12.24" opacity=".08"/><g opacity=".08"><circle cx="281.64" cy="199.03" r="12.24"/></g><circle cx="281.64" cy="199.03" r="12.24" fill="#ffd200"/><path fill="#fff" d="M282.13,192.6c.34,0,.45.12.45.47v.73a3.39,3.39,0,0,1,2.78,2.09c.18.36.1.56-.3.74l-.74.33c-.34.17-.51.09-.71-.27a1.89,1.89,0,0,0-1.93-1.15c-1.28,0-1.86.38-1.86,1.24a1.13,1.13,0,0,0,1,1A9.42,9.42,0,0,0,282,198a7.1,7.1,0,0,1,2,.38,3,3,0,0,1,.89.48,2.9,2.9,0,0,1,.8,2.11c0,1.64-1.09,2.75-3,3v.79c0,.34-.1.46-.45.47h-.83c-.34,0-.46-.12-.47-.47V204a3.41,3.41,0,0,1-3-2.31c-.13-.33,0-.55.34-.69l.74-.27c.37-.14.54-.05.71.33a2,2,0,0,0,2,1.26c1.39,0,2.08-.45,2.07-1.33a.91.91,0,0,0-.65-.93,4.9,4.9,0,0,0-1.49-.29,6.54,6.54,0,0,1-2-.43,2.42,2.42,0,0,1-1.7-2.54c0-1.62,1-2.71,2.95-3v-.74c0-.34.12-.46.47-.47Z"/></svg>